<svg
	xmlns="http://www.w3.org/2000/svg"
	aria-hidden="true"
	role="img"
	fill="none"
	width="24"
	height="24"
	viewBox="0 0 24 24"
>
	<path
		fill="currentColor"
		d="M12.6207 7.20031C12.4598 7.20031 12.3678 7.17823 12.3448 7.13407C12.3448 7.08991 12.3448 6.9795 12.3448 6.80284C12.3448 6.05205 12.5287 5.3123 12.8966 4.5836C13.2874 3.85489 13.7701 3.24763 14.3448 2.76183C14.9425 2.25394 15.5517 2 16.1724 2C16.4023 2 16.5517 2.13249 16.6207 2.39748C16.7126 2.64038 16.7586 2.88328 16.7586 3.12618V3.49054C16.6897 4.04259 16.4598 4.60568 16.069 5.17981C15.7011 5.75394 15.2184 6.23975 14.6207 6.63722C14.023 7.01262 13.3563 7.20031 12.6207 7.20031ZM8.62069 23C8.02299 23 7.50575 22.7902 7.06897 22.3707C5.85057 21.3107 4.86207 20.0079 4.10345 18.4621C3.36782 16.8943 3 15.194 3 13.3612C3 11.8817 3.28736 10.6672 3.86207 9.71767C4.43678 8.76814 5.12644 8.06151 5.93103 7.59779C6.75862 7.13407 7.52874 6.90221 8.24138 6.90221C8.63218 6.90221 8.94253 6.94637 9.17241 7.0347C9.42529 7.12303 9.73563 7.2224 10.1034 7.33281L11.3793 7.73028C11.5632 7.81861 11.8046 7.86278 12.1034 7.86278C12.2414 7.86278 12.4023 7.85174 12.5862 7.82965C12.7931 7.80757 13.0115 7.76341 13.2414 7.69716L14.4828 7.33281L15.069 7.10095C15.1609 7.07886 15.2414 7.05678 15.3103 7.0347C15.3793 7.01262 15.4368 6.99054 15.4828 6.96845L16.2759 6.83596C16.9655 6.83596 17.6897 7.00158 18.4483 7.33281C19.2069 7.64196 19.8621 8.21609 20.4138 9.0552C19.8391 9.36435 19.2874 9.88328 18.7586 10.612C18.2299 11.3186 17.9655 12.1467 17.9655 13.0962C17.9655 14.0237 18.2414 14.8959 18.7931 15.7129C19.3448 16.53 20.0805 17.1151 21 17.4685C20.8161 18.0426 20.5632 18.6498 20.2414 19.2902C19.9195 19.9306 19.5402 20.5379 19.1034 21.112C18.6667 21.664 18.1839 22.1167 17.6552 22.47C17.1264 22.8233 16.5747 23 16 23C15.3793 23 14.8851 22.9227 14.5172 22.7681C14.1724 22.5915 13.8391 22.4259 13.5172 22.2713C13.2184 22.1167 12.8161 22.0394 12.3103 22.0394C11.8736 22.0394 11.5172 22.0946 11.2414 22.205C10.9885 22.2934 10.7586 22.4038 10.5517 22.5363C10.3678 22.6467 10.1264 22.7461 9.82759 22.8344C9.55172 22.9448 9.14943 23 8.62069 23Z"
	/>
</svg>
