<svg
	xmlns="http://www.w3.org/2000/svg"
	aria-hidden="true"
	role="img"
	fill="none"
	width="24"
	height="24"
	viewBox="0 0 24 24"
>
	<path
		fill="currentColor"
		d="M12.2143 0.584222C12.0414 0.58065 11.8684 0.58065 11.6955 0.584222C8.09681 0.653034 4.59168 2.45735 2.43299 5.33603C0.0269938 8.45641 -0.656069 12.7963 0.659994 16.5097C0.894043 17.1907 1.19056 17.8485 1.54574 18.4749C4.89637 14.1534 8.22862 9.81485 11.5907 5.50328C11.9257 5.18716 12.4601 5.39903 12.6381 5.78528L22.4546 18.4749C23.955 15.8486 24.39 12.6112 23.6402 9.6491C22.6828 5.73578 19.6114 2.42903 15.7776 1.19172C14.6274 0.809905 13.426 0.605068 12.2143 0.584222ZM12.8691 7.35016L17.1566 23.418C17.7284 23.1454 18.2781 22.8286 18.8006 22.4705C19.9561 21.6736 20.9639 20.6812 21.7785 19.538C21.8657 19.4231 21.9401 19.3005 22.0204 19.1814L12.8691 7.35016Z"
	/>
</svg>
