<svg
	xmlns="http://www.w3.org/2000/svg"
	aria-hidden="true"
	role="img"
	fill="none"
	width="24"
	height="24"
	viewBox="0 0 24 24"
>
	<path
		fill="currentColor"
		d="M7 14H9C9.28333 14 9.52083 13.9042 9.7125 13.7125C9.90417 13.5208 10 13.2833 10 13C10 12.7167 9.90417 12.4792 9.7125 12.2875C9.52083 12.0958 9.28333 12 9 12H7C6.71667 12 6.47917 12.0958 6.2875 12.2875C6.09583 12.4792 6 12.7167 6 13C6 13.2833 6.09583 13.5208 6.2875 13.7125C6.47917 13.9042 6.71667 14 7 14ZM19 12C18.1667 12 17.4583 11.7083 16.875 11.125C16.2917 10.5417 16 9.83333 16 9C16 8.16667 16.2917 7.45833 16.875 6.875C17.4583 6.29167 18.1667 6 19 6C19.1833 6 19.3583 6.01667 19.525 6.05C19.6917 6.08333 19.85 6.125 20 6.175V2C20 1.71667 20.0958 1.47917 20.2875 1.2875C20.4792 1.09583 20.7167 1 21 1H23C23.2833 1 23.5208 1.09583 23.7125 1.2875C23.9042 1.47917 24 1.71667 24 2C24 2.28333 23.9042 2.52083 23.7125 2.7125C23.5208 2.90417 23.2833 3 23 3H22V9C22 9.83333 21.7083 10.5417 21.125 11.125C20.5417 11.7083 19.8333 12 19 12ZM7 11H12C12.2833 11 12.5208 10.9042 12.7125 10.7125C12.9042 10.5208 13 10.2833 13 10C13 9.71667 12.9042 9.47917 12.7125 9.2875C12.5208 9.09583 12.2833 9 12 9H7C6.71667 9 6.47917 9.09583 6.2875 9.2875C6.09583 9.47917 6 9.71667 6 10C6 10.2833 6.09583 10.5208 6.2875 10.7125C6.47917 10.9042 6.71667 11 7 11ZM7 8H12C12.2833 8 12.5208 7.90417 12.7125 7.7125C12.9042 7.52083 13 7.28333 13 7C13 6.71667 12.9042 6.47917 12.7125 6.2875C12.5208 6.09583 12.2833 6 12 6H7C6.71667 6 6.47917 6.09583 6.2875 6.2875C6.09583 6.47917 6 6.71667 6 7C6 7.28333 6.09583 7.52083 6.2875 7.7125C6.47917 7.90417 6.71667 8 7 8ZM15 18H6L3.7 20.3C3.6 20.4 3.49167 20.475 3.375 20.525C3.25833 20.575 3.13333 20.6 3 20.6C2.73333 20.6 2.5 20.5042 2.3 20.3125C2.1 20.1208 2 19.875 2 19.575V4C2 3.45 2.19583 2.97917 2.5875 2.5875C2.97917 2.19583 3.45 2 4 2H15C15.55 2 16.0208 2.19583 16.4125 2.5875C16.8042 2.97917 17 3.45 17 4V4.425C16.6 4.60833 16.2333 4.83333 15.9 5.1C15.5667 5.36667 15.2667 5.66667 15 6V4H4V17.175L5.175 16H15V12C15.2667 12.3333 15.5667 12.6333 15.9 12.9C16.2333 13.1667 16.6 13.3917 17 13.575V16C17 16.55 16.8042 17.0208 16.4125 17.4125C16.0208 17.8042 15.55 18 15 18Z"
	/>
</svg>
