<svg
	xmlns="http://www.w3.org/2000/svg"
	aria-hidden="true"
	role="img"
	fill="none"
	width="71"
	height="71"
	viewBox="0 0 71 71"
>
	<g clip-path="url(#clip0_56_2)">
		<path
			d="M25.5161 59.5548C25.5161 58.1535 25.5161 42.0387 25.5161 33.2806L44.7838 50.7968"
			stroke="currentColor"
			stroke-width="7.01"
			stroke-linecap="round"
		/>
		<path
			d="M18.5097 70.0645C24.314 70.0645 29.0194 65.3591 29.0194 59.5548C29.0194 53.7505 24.314 49.0451 18.5097 49.0451C12.7054 49.0451 8 53.7505 8 59.5548C8 65.3591 12.7054 70.0645 18.5097 70.0645Z"
			fill="currentColor"
		/>
		<path
			d="M13.2549 40.2871V7.00645L44.7839 33.2806V10.5097"
			stroke="currentColor"
			stroke-width="7.01"
			stroke-linecap="round"
			stroke-linejoin="round"
		/>
		<path
			d="M51.7904 -5.72205e-06C45.986 -5.72205e-06 41.2807 4.70535 41.2807 10.5097C41.2807 16.314 45.986 21.0194 51.7904 21.0194C57.5947 21.0194 62.3 16.314 62.3 10.5097C62.3 4.70535 57.5947 -5.72205e-06 51.7904 -5.72205e-06Z"
			fill="currentColor"
		/>
	</g>
	<defs>
		<clipPath id="clip0_56_2">
			<rect width="70.06" height="70.0645" fill="currentColor" />
		</clipPath>
	</defs>
</svg>
