<svg
	xmlns="http://www.w3.org/2000/svg"
	aria-hidden="true"
	role="img"
	fill="none"
	width="24"
	height="24"
	viewBox="0 0 24 24"
>
	<path
		fill="currentColor"
		d="M4 21.9999C3.45 21.9999 2.97917 21.8041 2.5875 21.4124C2.19583 21.0207 2 20.5499 2 19.9999V7.99991C2 7.58324 2.1125 7.20824 2.3375 6.87491C2.5625 6.54157 2.86667 6.29991 3.25 6.14991L15.075 1.3249C15.3083 1.24157 15.5375 1.24574 15.7625 1.3374C15.9875 1.42907 16.1417 1.59157 16.225 1.8249C16.3083 2.05824 16.3042 2.2874 16.2125 2.5124C16.1208 2.7374 15.9583 2.89157 15.725 2.9749L8.3 5.99991H20C20.55 5.99991 21.0208 6.19574 21.4125 6.58741C21.8042 6.97907 22 7.44991 22 7.99991V19.9999C22 20.5499 21.8042 21.0207 21.4125 21.4124C21.0208 21.8041 20.55 21.9999 20 21.9999H4ZM4 19.9999H20V12.9999H4V19.9999ZM9.775 18.2749C10.2583 17.7916 10.5 17.1999 10.5 16.4999C10.5 15.7999 10.2583 15.2082 9.775 14.7249C9.29167 14.2416 8.7 13.9999 8 13.9999C7.3 13.9999 6.70833 14.2416 6.225 14.7249C5.74167 15.2082 5.5 15.7999 5.5 16.4999C5.5 17.1999 5.74167 17.7916 6.225 18.2749C6.70833 18.7582 7.3 18.9999 8 18.9999C8.7 18.9999 9.29167 18.7582 9.775 18.2749ZM4 10.9999H16V9.99991C16 9.71657 16.0958 9.47907 16.2875 9.28741C16.4792 9.09574 16.7167 8.99991 17 8.99991C17.2833 8.99991 17.5208 9.09574 17.7125 9.28741C17.9042 9.47907 18 9.71657 18 9.99991V10.9999H20V7.99991H4V10.9999Z"
	/>
</svg>
